<?xml version="1.0" standalone="no"?>
<!DOCTYPE svg PUBLIC "-//W3C//DTD SVG 20010904//EN"
 "http://www.w3.org/TR/2001/REC-SVG-20010904/DTD/svg10.dtd">
<svg version="1.0" xmlns="http://www.w3.org/2000/svg"
 width="1078.000000pt" height="838.000000pt" viewBox="0 0 1078.000000 838.000000"
 preserveAspectRatio="xMidYMid meet">

<g transform="translate(0.000000,838.000000) scale(0.100000,-0.100000)"
fill="#000000" stroke="none">
<path d="M2280 8170 l0 -210 -33 0 c-51 0 -184 -37 -256 -70 -123 -58 -251
-167 -330 -283 -75 -111 -131 -277 -131 -393 0 -59 1 -62 24 -60 13 0 22 5 19
9 -3 5 -11 6 -19 3 -21 -8 -18 95 6 190 57 220 211 412 415 514 117 58 305
101 305 70 0 -5 11 -10 25 -10 19 0 23 -4 19 -17 -5 -17 -5 -17 9 0 8 9 21 17
30 17 15 0 16 -37 14 -389 -1 -214 1 -387 5 -385 4 3 7 279 8 614 l0 610 -55
0 -55 0 0 -210z"/>
<path d="M8793 8143 c9 -2 23 -2 30 0 6 3 -1 5 -18 5 -16 0 -22 -2 -12 -5z"/>
<path d="M10614 8108 c43 -57 61 -116 58 -193 -1 -38 -4 -260 -7 -492 l-6
-423 -915 0 -914 0 0 280 0 280 -32 0 c-18 0 -43 3 -55 6 l-23 6 0 -341 0
-341 1025 0 1025 0 0 625 0 625 -91 0 -90 0 25 -32z"/>
<path d="M1240 8085 c0 -8 -5 -15 -11 -15 -5 0 -7 5 -3 12 4 7 3 8 -4 4 -7 -4
-11 -24 -11 -44 1 -28 3 -31 6 -12 10 50 58 55 72 8 l9 -33 1 36 c1 19 -4 40
-11 47 -17 17 -48 15 -48 -3z m45 -5 c3 -6 -1 -7 -9 -4 -18 7 -21 14 -7 14 6
0 13 -4 16 -10z"/>
<path d="M1370 8091 c0 -6 4 -12 8 -15 5 -3 9 1 9 9 0 8 -4 15 -9 15 -4 0 -8
-4 -8 -9z"/>
<path d="M1425 8051 c-3 -5 -1 -12 5 -16 5 -3 10 1 10 9 0 18 -6 21 -15 7z"/>
<path d="M8822 7957 c-34 -34 -62 -69 -62 -78 0 -8 28 -43 63 -77 63 -63 63
-63 85 -44 12 11 22 23 22 28 0 5 -24 32 -52 61 l-52 53 31 32 31 31 26 -28
c31 -33 30 -30 11 -59 -14 -21 -13 -24 8 -44 l23 -22 32 31 c18 17 32 34 32
38 -1 7 -125 141 -132 141 -2 0 -32 -28 -66 -63z"/>
<path d="M1402 7985 c-11 -12 -10 -15 3 -15 8 0 15 7 15 15 0 18 -2 18 -18 0z"/>
<path d="M9070 7982 c0 -20 43 -132 51 -132 12 0 24 26 42 88 12 40 13 52 4
52 -7 0 -18 -21 -25 -47 -14 -50 -23 -48 -42 10 -10 32 -30 52 -30 29z"/>
<path d="M9590 7920 c0 -40 4 -70 10 -70 6 0 10 30 10 70 0 40 -4 70 -10 70
-6 0 -10 -30 -10 -70z"/>
<path d="M9662 7923 c3 -66 17 -88 28 -42 3 12 14 23 24 25 36 5 46 14 46 43
0 32 -14 41 -66 41 l-35 0 3 -67z m76 25 c3 -13 -3 -18 -22 -18 -20 0 -26 5
-26 21 0 15 5 20 22 17 13 -2 24 -11 26 -20z"/>
<path d="M10150 7971 c0 -15 -8 -21 -32 -23 -29 -3 -33 -7 -36 -36 -4 -44 12
-62 54 -60 l34 1 0 69 c0 39 -4 68 -10 68 -5 0 -10 -9 -10 -19z m-2 -70 c-4
-32 -34 -40 -43 -11 -8 25 11 51 31 43 9 -3 14 -16 12 -32z"/>
<path d="M1358 7973 c7 -3 16 -2 19 1 4 3 -2 6 -13 5 -11 0 -14 -3 -6 -6z"/>
<path d="M9200 7906 c0 -31 5 -56 10 -56 6 0 10 22 10 49 0 28 -4 53 -10 56
-6 4 -10 -15 -10 -49z"/>
<path d="M9268 7949 c-27 -15 -21 -39 12 -52 17 -6 28 -16 26 -22 -4 -11 -10
-11 -40 1 -14 5 -17 3 -14 -7 6 -18 55 -24 74 -8 22 18 17 36 -16 48 -38 13
-40 34 -2 26 26 -6 26 -6 8 9 -23 19 -25 19 -48 5z"/>
<path d="M9495 7945 c-19 -15 -19 -15 5 -13 30 4 40 -16 10 -20 -11 -2 -24
-12 -30 -22 -13 -24 6 -39 48 -38 32 1 32 2 32 50 0 26 -4 48 -9 48 -5 0 -15
2 -23 5 -7 3 -22 -1 -33 -10z m45 -54 c0 -5 -6 -14 -14 -20 -16 -13 -32 2 -21
19 8 12 35 13 35 1z"/>
<path d="M9813 7949 c-31 -11 -29 -23 1 -15 14 3 27 2 31 -4 3 -5 -5 -12 -19
-16 -61 -15 -54 -63 9 -61 34 1 35 2 35 44 0 48 -20 66 -57 52z m37 -58 c0 -5
-6 -14 -14 -20 -16 -13 -32 2 -21 19 8 12 35 13 35 1z"/>
<path d="M9360 7923 c0 -61 9 -73 51 -71 l39 1 0 49 c0 26 -4 48 -10 48 -5 0
-10 -11 -10 -24 0 -35 -10 -56 -26 -56 -14 0 -18 14 -16 58 1 13 -5 22 -13 22
-10 0 -15 -10 -15 -27z"/>
<path d="M9900 7900 c0 -27 5 -50 10 -50 6 0 10 16 10 35 0 22 6 38 15 41 24
9 17 24 -10 24 -23 0 -25 -3 -25 -50z"/>
<path d="M9980 7940 c0 -6 11 -8 25 -4 36 9 32 -15 -6 -28 -23 -8 -29 -16 -27
-32 2 -17 10 -21 43 -21 22 0 39 3 38 8 -2 4 -3 25 -3 47 0 39 -1 40 -35 40
-19 0 -35 -5 -35 -10z m50 -54 c0 -8 -4 -17 -8 -20 -13 -8 -35 11 -28 23 10
16 36 14 36 -3z"/>
<path d="M10202 7903 c2 -27 8 -48 13 -48 6 0 11 21 13 48 3 38 0 47 -13 47
-13 0 -16 -9 -13 -47z"/>
<path d="M10262 7938 c-29 -29 6 -98 43 -85 9 4 15 1 15 -10 0 -12 -7 -14 -31
-9 -22 4 -29 2 -27 -7 3 -6 17 -14 33 -15 39 -5 55 20 55 85 l0 53 -38 0 c-21
0 -43 -5 -50 -12z m61 -22 c7 -19 -17 -51 -31 -42 -20 12 -15 56 7 56 10 0 21
-6 24 -14z"/>
<path d="M10380 7900 c0 -27 5 -50 10 -50 6 0 10 17 10 38 0 43 6 53 26 45 9
-3 14 -20 14 -44 0 -21 5 -39 10 -39 6 0 10 18 10 40 0 33 3 40 20 40 17 0 20
-7 20 -40 0 -22 5 -40 11 -40 6 0 9 19 7 48 l-3 47 -67 3 -68 3 0 -51z"/>
<path d="M1280 7859 c-28 -5 -23 -7 28 -8 34 0 62 1 62 3 0 8 -56 11 -90 5z"/>
<path d="M1203 7853 c9 -2 23 -2 30 0 6 3 -1 5 -18 5 -16 0 -22 -2 -12 -5z"/>
<path d="M1393 7853 c9 -2 25 -2 35 0 9 3 1 5 -18 5 -19 0 -27 -2 -17 -5z"/>
<path d="M620 7795 c0 -40 2 -45 23 -45 29 0 47 18 46 45 -1 17 -2 16 -8 -5
-4 -15 -15 -26 -29 -28 -19 -3 -22 1 -22 33 0 34 2 37 25 33 13 -3 22 -1 19 3
-3 5 -16 9 -30 9 -22 0 -24 -4 -24 -45z"/>
<path d="M717 7803 c-3 -5 5 -8 18 -8 13 0 21 3 18 8 -2 4 -10 7 -18 7 -8 0
-16 -3 -18 -7z"/>
<path d="M786 7801 c-4 -5 3 -7 14 -4 23 6 26 13 6 13 -8 0 -17 -4 -20 -9z"/>
<path d="M838 7803 c6 -2 18 -2 25 0 6 3 1 5 -13 5 -14 0 -19 -2 -12 -5z"/>
<path d="M887 7803 c-3 -5 5 -8 18 -8 13 0 21 3 18 8 -2 4 -10 7 -18 7 -8 0
-16 -3 -18 -7z"/>
<path d="M965 7800 c-3 -6 1 -7 9 -4 18 7 21 14 7 14 -6 0 -13 -4 -16 -10z"/>
<path d="M1018 7803 c7 -3 16 -2 19 1 4 3 -2 6 -13 5 -11 0 -14 -3 -6 -6z"/>
<path d="M8760 7802 c0 -4 29 -37 66 -72 l65 -65 65 70 c36 38 61 71 54 73 -6
2 -36 -22 -66 -53 l-56 -57 -57 56 c-54 54 -71 65 -71 48z"/>
<path d="M717 7758 c2 -5 10 -8 18 -8 8 0 16 3 18 8 3 4 -5 7 -18 7 -13 0 -21
-3 -18 -7z"/>
<path d="M788 7758 c5 -5 16 -8 23 -6 8 3 3 7 -10 11 -17 4 -21 3 -13 -5z"/>
<path d="M847 7759 c7 -7 15 -10 18 -7 3 3 -2 9 -12 12 -14 6 -15 5 -6 -5z"/>
<path d="M887 7758 c2 -5 10 -8 18 -8 8 0 16 3 18 8 3 4 -5 7 -18 7 -13 0 -21
-3 -18 -7z"/>
<path d="M1008 7753 c6 -2 18 -2 25 0 6 3 1 5 -13 5 -14 0 -19 -2 -12 -5z"/>
<path d="M698 7593 c27 -6 29 -33 2 -33 -11 0 -20 -5 -20 -11 0 -5 5 -7 11 -4
6 4 16 0 22 -9 10 -14 12 -10 12 21 0 33 -3 38 -25 40 -22 1 -22 1 -2 -4z"/>
<path d="M10484 7455 c0 -77 2 -107 3 -67 2 40 2 103 0 140 -2 37 -3 4 -3 -73z"/>
<path d="M10450 7475 l-5 -110 -54 -3 c-55 -3 -76 8 -66 35 2 7 0 15 -5 18 -6
4 -10 -10 -10 -32 l0 -38 64 3 c38 2 70 9 76 17 7 8 10 52 8 116 l-3 104 -5
-110z"/>
<path d="M755 7559 c-4 -6 -4 -13 -1 -16 3 -4 6 -1 6 6 0 8 8 11 20 8 11 -3
18 -1 14 4 -7 12 -31 11 -39 -2z"/>
<path d="M838 7563 c6 -2 18 -2 25 0 6 3 1 5 -13 5 -14 0 -19 -2 -12 -5z"/>
<path d="M906 7561 c-4 -5 3 -7 14 -4 23 6 26 13 6 13 -8 0 -17 -4 -20 -9z"/>
<path d="M950 7566 c0 -2 7 -6 15 -10 8 -3 15 -1 15 4 0 6 -7 10 -15 10 -8 0
-15 -2 -15 -4z"/>
<path d="M9494 7435 c0 -71 1 -99 3 -62 2 37 2 96 0 130 -2 34 -3 4 -3 -68z"/>
<path d="M10182 7453 c-1 -61 -5 -119 -8 -128 -6 -14 5 -16 100 -14 59 1 109
6 111 10 3 4 -40 5 -95 4 l-99 -4 -4 122 -3 122 -2 -112z"/>
<path d="M10310 7530 c0 -5 5 -10 10 -10 6 0 10 5 10 10 0 6 -4 10 -10 10 -5
0 -10 -4 -10 -10z"/>
<path d="M757 7518 c2 -5 10 -8 18 -8 8 0 16 3 18 8 3 4 -5 7 -18 7 -13 0 -21
-3 -18 -7z"/>
<path d="M838 7513 c6 -2 18 -2 25 0 6 3 1 5 -13 5 -14 0 -19 -2 -12 -5z"/>
<path d="M10321 7494 c0 -11 3 -14 6 -6 3 7 2 16 -1 19 -3 4 -6 -2 -5 -13z"/>
<path d="M1958 7173 c-203 -2 -368 -7 -368 -11 0 -4 168 -7 374 -7 295 0 372
3 369 13 -3 6 -6 11 -7 10 0 -2 -166 -4 -368 -5z"/>
<path d="M0 7085 l0 -55 1125 0 1125 0 0 -640 0 -640 55 0 55 0 0 695 0 695
-1180 0 -1180 0 0 -55z"/>
<path d="M132 6775 c3 -3 231 -5 507 -5 l501 0 0 -325 0 -325 -507 -3 c-433
-2 -400 -3 225 -5 402 -1 732 1 732 6 0 4 -54 6 -121 4 l-120 -3 3 28 3 28 95
5 95 5 0 260 0 260 -95 5 c-95 5 -95 5 -98 33 l-3 27 121 0 c78 0 119 -4 115
-10 -3 -5 -1 -10 5 -10 7 0 10 6 8 13 -4 9 -162 13 -738 15 -403 1 -731 0
-728 -3z m1208 -330 l0 -325 -95 0 -95 0 0 325 0 325 95 0 95 0 0 -325z m195
0 l0 -250 -92 -3 -93 -3 0 256 0 256 93 -3 92 -3 0 -250z"/>
<path d="M8720 6170 l0 -590 1025 0 1025 0 0 590 0 590 -1025 0 -1025 0 0
-590z m1940 0 l0 -480 -915 0 -915 0 0 480 0 480 915 0 915 0 0 -480z"/>
<path d="M9155 6575 c-16 -13 -42 -24 -57 -25 -16 0 -28 -6 -29 -12 0 -7 -2
-21 -4 -30 -3 -17 13 -18 215 -18 202 0 218 1 215 18 -2 9 -4 23 -4 30 -1 6
-13 12 -27 12 -14 0 -40 11 -58 25 -30 23 -42 25 -127 25 -85 0 -97 -2 -124
-25z m85 -5 c0 -17 -7 -20 -47 -20 -45 0 -46 0 -28 20 10 11 31 20 47 20 21 0
28 -5 28 -20z m69 -4 c0 -16 -2 -17 -7 -6 -4 8 -14 15 -22 15 -8 0 -18 -7 -22
-15 -5 -11 -7 -10 -7 6 -1 16 5 21 29 21 24 0 30 -5 29 -21z m86 4 c18 -20 17
-20 -28 -20 -40 0 -47 3 -47 20 0 15 7 20 28 20 16 0 37 -9 47 -20z m88 -44
c3 -8 3 -17 0 -20 -8 -8 -398 -8 -406 0 -3 3 -3 12 0 20 8 21 398 21 406 0z"/>
<path d="M9490 6250 l0 -200 500 0 500 0 0 200 0 200 -500 0 -500 0 0 -200z
m690 0 l0 -190 -340 0 -340 0 0 190 0 190 340 0 340 0 0 -190z m300 0 l0 -190
-75 0 c-59 0 -75 3 -75 15 0 10 16 15 63 17 l62 3 3 153 c2 117 0 153 -10 157
-26 8 -137 11 -132 3 3 -4 34 -8 70 -8 l64 0 0 -150 0 -151 -62 3 -62 3 3 136
c2 89 -1 139 -8 144 -8 4 -11 -44 -11 -159 l0 -166 -60 0 -60 0 0 190 0 189
145 0 145 1 0 -190z"/>
<path d="M138 6485 c1 -149 4 -290 5 -315 2 -25 4 83 4 240 0 157 -2 298 -6
315 -3 16 -5 -92 -3 -240z"/>
<path d="M1589 6738 c-5 -12 -5 -87 0 -83 6 7 10 85 4 85 -1 0 -3 -1 -4 -2z"/>
<path d="M1580 6189 c0 -5 5 -7 10 -4 6 3 10 8 10 11 0 2 -4 4 -10 4 -5 0 -10
-5 -10 -11z"/>
<path d="M4824 6127 c-2 -7 -3 -107 -2 -222 l3 -210 545 0 545 0 0 220 0 220
-543 2 c-430 2 -544 0 -548 -10z m101 -212 l0 -210 -47 -3 -48 -3 0 216 0 216
48 -3 47 -3 0 -210z m875 180 l0 -35 -430 0 -430 0 0 35 0 35 430 0 430 0 0
-35z m108 -177 l-3 -213 -45 0 -45 0 -3 200 c-1 110 0 205 2 212 3 8 23 13 51
13 l45 0 -2 -212z m-548 -43 l0 -175 -210 0 -210 0 0 168 c0 93 3 172 7 175 3
4 98 7 210 7 l203 0 0 -175z m438 -2 l2 -173 -209 0 c-186 0 -210 2 -215 17
-8 19 -7 300 1 320 4 11 45 13 212 11 l206 -3 3 -172z"/>
<path d="M7868 5983 c6 -2 18 -2 25 0 6 3 1 5 -13 5 -14 0 -19 -2 -12 -5z"/>
<path d="M8188 5983 c12 -2 22 -11 22 -19 0 -8 -10 -14 -22 -15 -16 0 -18 -2
-8 -6 8 -4 20 -12 25 -20 7 -10 10 -3 10 24 0 33 -3 38 -25 40 -22 1 -22 1 -2
-4z"/>
<path d="M7854 5961 c7 -11 46 -35 46 -28 0 3 -12 12 -26 22 -15 9 -23 12 -20
6z"/>
<path d="M7924 5930 c1 -18 7 -25 20 -25 11 0 20 6 22 13 1 7 0 8 -3 2 -9 -18
-32 -10 -36 13 -3 19 -4 19 -3 -3z"/>
<path d="M8028 5953 c7 -3 16 -2 19 1 4 3 -2 6 -13 5 -11 0 -14 -3 -6 -6z"/>
<path d="M8077 5954 c-14 -14 -6 -24 19 -24 16 0 24 5 22 13 -5 14 -31 21 -41
11z m30 -10 c-3 -3 -12 -4 -19 -1 -8 3 -5 6 6 6 11 1 17 -2 13 -5z"/>
<path d="M8245 5949 c-4 -6 -4 -13 -1 -16 3 -4 6 -1 6 6 0 8 8 11 20 8 11 -3
18 -1 14 4 -7 12 -31 11 -39 -2z"/>
<path d="M8313 5945 c-3 -9 -3 -19 1 -22 3 -4 6 1 6 10 0 8 10 18 23 20 l22 4
-23 2 c-12 0 -25 -6 -29 -14z"/>
<path d="M8396 5951 c-5 -8 63 -5 71 3 2 2 -12 4 -31 4 -20 0 -38 -3 -40 -7z"/>
<path d="M8360 5927 c0 -8 -10 -18 -22 -20 l-23 -4 23 -2 c22 -1 41 23 28 36
-3 4 -6 -1 -6 -10z"/>
<path d="M7870 5910 c-23 -7 -23 -8 -3 -9 12 -1 25 4 28 9 3 6 5 10 3 9 -2 -1
-14 -5 -28 -9z"/>
<path d="M8078 5908 c5 -5 16 -8 23 -6 8 3 3 7 -10 11 -17 4 -21 3 -13 -5z"/>
<path d="M8247 5908 c2 -5 10 -8 18 -8 8 0 16 3 18 8 3 4 -5 7 -18 7 -13 0
-21 -3 -18 -7z"/>
<path d="M0 5845 l0 -55 865 0 865 0 0 55 0 55 -865 0 -865 0 0 -55z"/>
<path d="M105 5550 c-3 -5 -2 -10 4 -10 5 0 13 5 16 10 3 6 2 10 -4 10 -5 0
-13 -4 -16 -10z"/>
<path d="M1081 5550 c7 -5 17 -6 21 -4 4 3 8 -144 8 -326 0 -182 -4 -329 -8
-326 -4 2 -14 1 -21 -4 -8 -4 43 -9 117 -9 l131 -2 -6 36 -6 35 90 0 c56 0 93
4 101 12 17 17 17 499 0 516 -8 8 -45 12 -101 12 l-90 0 6 35 6 36 -131 -2
c-74 0 -125 -5 -117 -9z m229 -330 l0 -328 -92 2 -93 1 -3 315 c-1 173 0 320
2 326 3 7 37 11 95 11 l91 0 0 -327z m195 0 l0 -255 -92 -3 -93 -3 0 261 0
261 93 -3 92 -3 0 -255z"/>
<path d="M1520 5549 c0 -5 5 -7 10 -4 6 3 10 8 10 11 0 2 -4 4 -10 4 -5 0 -10
-5 -10 -11z"/>
<path d="M1557 5553 c-10 -9 -9 -23 1 -23 5 0 9 7 9 15 0 17 -1 18 -10 8z"/>
<path d="M1555 5500 c6 -30 16 -40 12 -12 -2 12 -6 24 -10 28 -3 4 -4 -4 -2
-16z"/>
<path d="M114 5220 c0 -157 2 -221 3 -142 2 78 2 206 0 285 -1 78 -3 14 -3
-143z"/>
<path d="M8720 4865 l0 -585 1025 0 1025 0 0 585 0 585 -1025 0 -1025 0 0
-585z m1940 0 l0 -475 -915 0 -915 0 0 475 0 475 915 0 915 0 0 -475z"/>
<path d="M9152 5255 c-18 -15 -42 -25 -60 -25 -23 0 -29 -4 -27 -17 2 -10 4
-24 4 -30 1 -10 50 -13 211 -13 161 0 210 3 211 13 0 6 2 20 4 30 2 13 -4 17
-27 17 -18 0 -42 10 -60 25 -27 23 -38 25 -128 25 -90 0 -101 -2 -128 -25z
m107 -7 c0 -22 -1 -22 -9 -3 -7 17 -9 17 -9 3 -1 -15 -10 -18 -48 -18 -45 0
-46 0 -28 20 12 13 31 20 57 20 33 0 38 -3 37 -22z m136 2 c18 -20 17 -20 -28
-20 -38 0 -47 3 -48 18 0 14 -2 14 -9 -3 -8 -19 -9 -19 -9 3 -1 19 4 22 37 22
26 0 45 -7 57 -20z m-105 -10 c0 -5 -4 -10 -10 -10 -5 0 -10 5 -10 10 0 6 5
10 10 10 6 0 10 -4 10 -10z m193 -26 c3 -3 3 -12 0 -20 -8 -21 -398 -21 -406
0 -3 8 -3 17 0 20 8 8 398 8 406 0z"/>
<path d="M9490 4780 l0 -200 500 0 500 0 0 200 0 200 -500 0 -500 0 0 -200z
m690 0 l0 -190 -340 0 -340 0 0 190 0 190 340 0 340 0 0 -190z m131 0 l0 -185
-60 -3 -61 -3 0 191 0 191 61 -3 60 -3 0 -185z m169 0 l0 -190 -75 0 c-59 0
-75 3 -75 15 0 10 16 15 63 17 l62 3 0 155 0 155 -62 3 c-47 2 -63 7 -63 17 0
12 16 15 75 15 l75 0 0 -190z m-30 0 l0 -150 -62 0 -63 0 0 150 0 150 63 0 62
0 0 -150z"/>
<path d="M1557 5423 c-10 -9 -9 -401 1 -406 4 -3 7 89 7 204 0 115 0 209 -1
209 0 0 -4 -3 -7 -7z"/>
<path d="M2068 5283 c6 -2 18 -2 25 0 6 3 1 5 -13 5 -14 0 -19 -2 -12 -5z"/>
<path d="M2293 5245 c0 -27 2 -38 4 -22 2 15 2 37 0 50 -2 12 -4 0 -4 -28z"/>
<path d="M2420 5244 c0 -44 1 -45 27 -42 18 2 28 9 29 21 1 12 1 13 -3 2 -6
-19 -43 -20 -43 -1 0 8 8 17 18 19 16 4 16 5 0 6 -21 1 -25 31 -5 31 7 0 19
-6 26 -12 10 -11 11 -10 6 5 -4 9 -17 17 -31 17 -22 0 -24 -4 -24 -46z"/>
<path d="M2054 5261 c7 -11 46 -35 46 -28 0 3 -12 12 -26 22 -15 9 -23 12 -20
6z"/>
<path d="M2122 5230 c0 -19 2 -27 5 -17 2 9 2 25 0 35 -3 9 -5 1 -5 -18z"/>
<path d="M2154 5246 c-3 -8 -4 -23 -1 -33 3 -12 5 -9 6 9 1 19 7 28 24 31 l22
4 -23 2 c-12 0 -25 -5 -28 -13z"/>
<path d="M2225 5250 c-3 -5 -3 -14 0 -20 8 -12 32 -13 39 -1 4 5 -3 7 -14 4
-11 -3 -20 -1 -20 5 0 6 10 13 23 15 22 4 22 4 0 6 -12 0 -25 -3 -28 -9z"/>
<path d="M2324 5246 c-10 -25 3 -46 28 -45 l23 2 -22 4 c-29 6 -30 23 -2 23
12 0 19 5 17 13 -7 18 -37 21 -44 3z m33 -2 c-3 -3 -12 -4 -19 -1 -8 3 -5 6 6
6 11 1 17 -2 13 -5z"/>
<path d="M2508 5253 c7 -3 16 -2 19 1 4 3 -2 6 -13 5 -11 0 -14 -3 -6 -6z"/>
<path d="M2578 5253 c7 -3 16 -2 19 1 4 3 -2 6 -13 5 -11 0 -14 -3 -6 -6z"/>
<path d="M2490 5231 c0 -4 11 -6 25 -3 14 2 25 6 25 8 0 2 -11 4 -25 4 -14 0
-25 -4 -25 -9z"/>
<path d="M2561 5227 c-1 -23 27 -34 42 -16 7 8 8 11 3 7 -17 -13 -34 -9 -39
10 -4 16 -5 16 -6 -1z"/>
<path d="M2070 5210 c-23 -7 -23 -8 -3 -9 12 -1 25 4 28 9 3 6 5 10 3 9 -2 -1
-14 -5 -28 -9z"/>
<path d="M2238 5203 c6 -2 18 -2 25 0 6 3 1 5 -13 5 -14 0 -19 -2 -12 -5z"/>
<path d="M2508 5203 c6 -2 18 -2 25 0 6 3 1 5 -13 5 -14 0 -19 -2 -12 -5z"/>
<path d="M2228 5173 c6 -2 18 -2 25 0 6 3 1 5 -13 5 -14 0 -19 -2 -12 -5z"/>
<path d="M1559 4963 c0 -5 -2 -16 -4 -26 -2 -11 -1 -16 3 -13 8 8 14 46 7 46
-3 0 -5 -3 -6 -7z"/>
<path d="M4784 4947 c-2 -7 -3 -89 -2 -182 l3 -170 585 0 585 0 0 180 0 180
-583 2 c-467 2 -584 0 -588 -10z m111 -172 l0 -170 -50 0 -50 0 -3 160 c-1 87
0 165 3 173 3 9 19 12 52 10 l48 -3 0 -170z m467 39 c2 -75 1 -138 -1 -140 -2
-2 -105 -4 -228 -4 l-223 0 0 140 0 140 224 0 225 0 3 -136z m468 -4 l0 -140
-225 0 -225 0 0 140 0 140 225 0 225 0 0 -140z m115 -35 l0 -170 -46 -3 c-44
-3 -47 -2 -50 25 -2 15 -3 95 -1 176 l3 148 47 -3 47 -3 0 -170z m-117 -147
l3 -28 -460 0 -461 0 0 23 c0 13 3 27 7 30 3 4 209 6 457 5 l451 -3 3 -27z"/>
<path d="M1550 4901 c0 -6 4 -12 8 -15 5 -3 9 1 9 9 0 8 -4 15 -9 15 -4 0 -8
-4 -8 -9z"/>
<path d="M105 4890 c3 -5 11 -10 16 -10 6 0 7 5 4 10 -3 6 -11 10 -16 10 -6 0
-7 -4 -4 -10z"/>
<path d="M1520 4890 c0 -5 5 -10 11 -10 5 0 7 5 4 10 -3 6 -8 10 -11 10 -2 0
-4 -4 -4 -10z"/>
<path d="M2247 4803 c-4 -3 -7 -600 -7 -1325 l0 -1318 -1115 0 -1115 0 0 -55
0 -55 1170 0 1170 0 0 1380 0 1380 -48 0 c-27 0 -52 -3 -55 -7z"/>
<path d="M0 4525 l0 -55 865 0 865 0 0 55 0 55 -865 0 -865 0 0 -55z"/>
<path d="M1060 4218 c0 -5 6 -8 13 -7 37 5 37 8 37 -326 0 -274 -2 -324 -14
-319 -8 3 -17 1 -20 -4 -4 -6 49 -10 139 -11 90 0 143 4 140 9 -4 6 -13 10
-21 10 -8 0 -14 10 -14 25 0 25 1 25 88 25 55 0 92 4 100 12 17 17 17 499 0
516 -8 8 -45 12 -100 12 -85 0 -88 1 -88 23 0 13 6 29 13 36 10 10 -16 12
-130 10 -79 -1 -143 -6 -143 -11z m250 -326 l0 -327 -93 0 -92 0 -3 315 c-1
173 0 320 2 326 2 6 39 11 95 12 l91 1 0 -327z m195 -2 l0 -255 -92 -3 -93 -3
0 261 0 261 93 -3 92 -3 0 -255z"/>
<path d="M1540 4221 c0 -5 7 -11 15 -15 8 -3 15 -1 15 3 0 5 -7 11 -15 15 -8
3 -15 1 -15 -3z"/>
<path d="M105 4200 c3 -5 8 -10 11 -10 2 0 4 5 4 10 0 6 -5 10 -11 10 -5 0 -7
-4 -4 -10z"/>
<path d="M1555 4150 c3 -5 8 -10 11 -10 2 0 4 5 4 10 0 6 -5 10 -11 10 -5 0
-7 -4 -4 -10z"/>
<path d="M114 3865 c0 -159 2 -223 3 -142 2 82 2 212 0 290 -1 78 -3 12 -3
-148z"/>
<path d="M1553 4097 c1 -15 5 -27 10 -27 10 0 9 22 -2 39 -7 10 -9 7 -8 -12z"/>
<path d="M1554 3855 c0 -115 2 -161 3 -102 2 59 2 154 0 210 -1 56 -3 8 -3
-108z"/>
<path d="M1540 3568 c-12 -8 -12 -9 2 -5 9 3 19 1 22 -6 3 -9 5 -9 5 0 1 18
-13 23 -29 11z"/>
<path d="M115 3560 c27 -12 43 -12 25 0 -8 5 -22 9 -30 9 -10 0 -8 -3 5 -9z"/>
<path d="M0 3355 l0 -55 835 0 835 0 0 55 0 55 -835 0 -835 0 0 -55z"/>
<path d="M110 3115 c0 -3 0 -155 0 -337 -1 -262 2 -334 12 -336 8 -2 9 0 3 5
-6 5 -10 129 -10 333 0 205 4 328 10 332 6 5 5 8 -2 8 -7 0 -13 -2 -13 -5z"/>
<path d="M1045 3110 c3 -5 8 -10 11 -10 2 0 4 5 4 10 0 6 -5 10 -11 10 -5 0
-7 -4 -4 -10z"/>
<path d="M1088 3113 l22 -4 0 -329 0 -329 -22 -4 c-13 -2 40 -5 117 -6 108 -1
136 2 127 11 -7 7 -12 22 -12 35 0 22 3 23 89 23 64 0 92 4 100 14 16 20 16
492 0 512 -8 10 -36 14 -100 14 -86 0 -89 1 -89 23 0 13 5 28 12 35 9 9 -19
12 -127 11 -77 -1 -130 -4 -117 -6z m222 -333 l0 -328 -95 -1 -95 -2 0 331 0
331 95 -2 95 -1 0 -328z m184 254 c14 -5 16 -37 16 -254 0 -217 -2 -249 -16
-254 -9 -3 -51 -6 -95 -6 l-79 0 0 260 0 260 79 0 c44 0 86 -3 95 -6z"/>
<path d="M1540 3110 c0 -5 5 -10 11 -10 5 0 7 5 4 10 -3 6 -8 10 -11 10 -2 0
-4 -4 -4 -10z"/>
<path d="M1553 3005 c0 -8 4 -15 9 -15 4 0 8 4 8 9 0 6 -4 12 -8 15 -5 3 -9
-1 -9 -9z"/>
<path d="M1554 2780 c0 -96 2 -136 3 -87 2 48 2 126 0 175 -1 48 -3 8 -3 -88z"/>
<path d="M1553 2555 c0 -8 4 -12 9 -9 4 3 8 9 8 15 0 5 -4 9 -8 9 -5 0 -9 -7
-9 -15z"/>
<path d="M5300 2436 c0 -41 2 -46 23 -45 16 1 18 2 5 6 -27 7 -25 73 1 73 11
0 22 -5 24 -10 3 -6 4 -5 3 2 -1 7 -15 14 -29 16 -26 3 -27 1 -27 -42z"/>
<path d="M5531 2438 c-1 -44 1 -48 22 -47 16 1 18 2 5 6 -26 7 -22 41 5 46 22
4 22 4 0 6 -12 0 -24 9 -26 19 -3 9 -5 -4 -6 -30z"/>
<path d="M5758 2473 c12 -2 22 -11 22 -18 0 -7 -10 -15 -22 -17 -22 -3 -22 -4
3 -9 23 -5 26 -3 25 20 -1 20 -6 26 -26 28 -22 1 -22 1 -2 -4z"/>
<path d="M5920 2465 c0 -8 -6 -15 -14 -15 -8 0 -17 -4 -20 -9 -4 -5 3 -7 14
-4 16 4 20 0 20 -17 0 -18 -4 -21 -21 -17 -16 4 -19 3 -11 -5 21 -21 42 0 42
42 0 22 -2 40 -5 40 -3 0 -5 -7 -5 -15z"/>
<path d="M1045 2450 c-3 -5 -1 -10 4 -10 6 0 11 5 11 10 0 6 -2 10 -4 10 -3 0
-8 -4 -11 -10z"/>
<path d="M1540 2449 c0 -5 5 -7 10 -4 6 3 10 8 10 11 0 2 -4 4 -10 4 -5 0 -10
-5 -10 -11z"/>
<path d="M5408 2443 c25 -5 31 -39 7 -46 -11 -4 -10 -4 2 -3 12 1 18 10 18 26
0 20 -5 25 -25 27 -22 1 -22 1 -2 -4z"/>
<path d="M5464 2420 c1 -18 7 -25 21 -25 14 0 20 7 21 25 1 22 0 22 -3 3 -2
-13 -10 -23 -18 -23 -8 0 -16 10 -18 23 -3 19 -4 19 -3 -3z"/>
<path d="M5814 2436 c-10 -25 3 -46 28 -45 l23 2 -22 4 c-29 6 -30 23 -2 23
12 0 19 5 17 13 -7 18 -37 21 -44 3z m33 -2 c-3 -3 -12 -4 -19 -1 -8 3 -5 6 6
6 11 1 17 -2 13 -5z"/>
<path d="M5630 2422 c0 -14 23 -32 40 -31 8 0 4 5 -10 11 l-25 11 25 7 25 8
-27 1 c-16 1 -28 -3 -28 -7z"/>
<path d="M5760 2400 c-23 -7 -23 -8 -3 -9 12 -1 25 4 28 9 3 6 5 10 3 9 -2 -1
-14 -5 -28 -9z"/>
<path d="M3360 1035 l0 -1025 1075 0 1075 0 0 1025 0 1025 -1075 0 -1075 0 0
-1025z m2040 0 l0 -915 -965 0 -965 0 0 915 0 915 965 0 965 0 0 -915z"/>
<path d="M3677 1393 c-4 -3 -6 -250 -5 -547 2 -466 3 -489 5 -163 l3 377 275
0 275 0 0 -363 c0 -236 -4 -367 -10 -373 -7 -7 -6 -11 5 -11 13 0 15 61 13
546 -1 300 -4 504 -5 454 -4 -91 -4 -93 -28 -93 -24 0 -25 3 -25 65 0 53 -3
66 -19 75 -12 6 -97 10 -206 10 -109 0 -194 -4 -206 -10 -16 -9 -19 -22 -19
-75 0 -63 -1 -65 -26 -65 l-26 0 4 90 c1 50 3 90 2 90 0 0 -4 -3 -7 -7z m477
-39 c12 -5 16 -21 16 -70 l0 -64 -215 0 -215 0 0 64 c0 42 4 66 13 69 18 8
382 8 401 1z m76 -214 l0 -70 -275 0 -275 0 0 70 0 70 275 0 275 0 0 -70z"/>
<path d="M3706 1391 c-4 -5 3 -7 14 -4 23 6 26 13 6 13 -8 0 -17 -4 -20 -9z"/>
<path d="M4081 1396 c3 -4 30 -8 59 -11 29 -2 50 -1 46 2 -3 3 -29 8 -58 10
-29 2 -50 2 -47 -1z"/>
<path d="M4702 851 c2 -464 3 -490 5 -168 l3 377 275 0 275 0 0 -369 0 -368
-25 2 c-14 2 -27 0 -29 -3 -2 -4 11 -8 30 -9 l34 -2 0 542 0 542 -39 0 c-22 0
-43 -3 -47 -7 -3 -4 3 -6 14 -3 11 2 30 1 41 -2 19 -5 21 -13 21 -84 0 -78 0
-79 -25 -79 -24 0 -25 2 -25 63 0 36 -5 68 -12 75 -17 17 -409 17 -426 0 -7
-7 -12 -39 -12 -75 0 -61 -1 -63 -25 -63 -26 0 -26 0 -23 83 l3 82 43 -1 c23
-1 40 2 36 5 -3 3 -26 6 -50 7 l-44 1 2 -546z m482 503 c12 -5 16 -21 16 -70
l0 -64 -215 0 -215 0 0 64 c0 53 3 65 18 69 26 7 378 8 396 1z m76 -214 l0
-70 -275 0 -275 0 0 70 0 70 275 0 275 0 0 -70z"/>
<path d="M5128 1388 c5 -5 16 -8 23 -6 8 3 3 7 -10 11 -17 4 -21 3 -13 -5z"/>
<path d="M5730 1035 l0 -1025 1075 0 1075 0 0 1025 0 1025 -1075 0 -1075 0 0
-1025z m2040 0 l0 -915 -965 0 -965 0 0 915 0 915 965 0 965 0 0 -915z"/>
<path d="M6075 1392 c-3 -3 -4 -249 -3 -546 2 -466 3 -489 5 -163 l3 377 275
0 275 0 0 -363 c0 -236 -4 -367 -10 -373 -7 -7 -6 -11 5 -11 13 0 15 61 13
546 -1 300 -4 504 -5 454 -4 -91 -4 -93 -28 -93 -24 0 -25 3 -25 65 0 53 -3
66 -19 75 -12 6 -97 10 -206 10 -109 0 -194 -4 -206 -10 -16 -9 -19 -22 -19
-75 0 -63 -1 -65 -25 -65 -25 0 -25 1 -25 85 0 71 2 83 15 79 8 -4 15 -2 15 3
0 10 -26 13 -35 5z m479 -38 c12 -5 16 -21 16 -70 l0 -64 -215 0 -215 0 0 64
c0 42 4 66 13 69 18 8 382 8 401 1z m76 -214 l0 -70 -275 0 -275 0 0 70 0 70
275 0 275 0 0 -70z"/>
<path d="M6120 1390 c0 -5 9 -8 20 -7 21 1 18 10 -5 13 -8 1 -15 -2 -15 -6z"/>
<path d="M6505 1390 c17 -4 41 -8 55 -8 l25 0 -25 8 c-14 4 -38 8 -55 8 l-30
0 30 -8z"/>
<path d="M6590 1396 c0 -2 7 -6 15 -10 8 -3 15 -1 15 4 0 6 -7 10 -15 10 -8 0
-15 -2 -15 -4z"/>
<path d="M7073 1393 c-10 -4 -13 -121 -13 -544 0 -296 3 -539 8 -539 4 0 6
169 4 375 l-2 375 275 0 275 0 0 -371 c0 -277 -3 -368 -12 -363 -7 4 -8 3 -4
-4 4 -7 11 -12 17 -12 5 0 9 210 9 543 0 536 0 543 -20 543 -11 0 -20 -4 -20
-8 0 -4 7 -8 15 -8 12 0 15 -16 15 -80 0 -79 0 -80 -25 -80 -24 0 -25 2 -25
65 0 53 -3 66 -19 75 -26 13 -386 13 -412 0 -16 -9 -19 -22 -19 -75 0 -63 -1
-65 -25 -65 -26 0 -26 0 -23 83 3 72 5 82 21 79 9 -2 17 -1 17 1 0 8 -25 14
-37 10z m471 -39 c12 -5 16 -21 16 -70 l0 -64 -215 0 -215 0 0 64 c0 42 4 66
13 69 18 8 382 8 401 1z m76 -214 l0 -70 -275 0 -275 0 0 70 0 70 275 0 275 0
0 -70z"/>
<path d="M7180 1390 c0 -5 5 -10 11 -10 5 0 7 5 4 10 -3 6 -8 10 -11 10 -2 0
-4 -4 -4 -10z"/>
<path d="M7520 1392 c0 -4 9 -8 20 -9 11 -1 18 2 15 8 -7 11 -35 12 -35 1z"/>
<path d="M7096 322 c-3 -5 1 -9 9 -9 8 0 12 4 9 9 -3 4 -7 8 -9 8 -2 0 -6 -4
-9 -8z"/>
<path d="M9885 1726 c-5 -2 -23 -7 -39 -11 -22 -4 -27 -10 -23 -25 3 -11 1
-36 -3 -57 -20 -96 -19 -109 3 -111 16 -1 18 1 8 7 -11 7 -12 23 -7 67 4 32
10 62 15 67 4 4 38 13 75 18 72 11 210 -1 228 -19 6 -6 11 -39 12 -74 1 -59 2
-63 26 -65 19 -1 21 1 8 8 -15 8 -34 107 -29 155 1 13 -5 25 -16 29 -19 8
-241 17 -258 11z m229 -15 c16 -3 31 -12 34 -19 3 -10 -7 -11 -50 -5 -29 4
-78 8 -108 8 -30 0 -79 -4 -108 -8 -43 -6 -53 -5 -50 5 7 19 50 26 158 26 52
0 108 -3 124 -7z"/>
<path d="M120 855 l0 -845 345 0 345 0 0 845 0 845 -345 0 -345 0 0 -845z
m340 715 l0 -120 -165 0 -165 0 0 120 0 120 165 0 165 0 0 -120z m340 0 l0
-120 -165 0 -165 0 0 120 0 120 165 0 165 0 0 -120z m-340 -250 l0 -120 -165
0 -165 0 0 120 0 120 165 0 165 0 0 -120z m340 0 l0 -120 -165 0 -165 0 0 120
0 120 165 0 165 0 0 -120z m-340 -250 l0 -120 -165 0 -165 0 0 120 0 120 165
0 165 0 0 -120z m340 0 l0 -120 -165 0 -165 0 0 120 0 120 165 0 165 0 0 -120z
m-340 -250 l0 -120 -165 0 -165 0 0 120 0 120 165 0 165 0 0 -120z m340 0 l0
-120 -165 0 -165 0 0 120 0 120 165 0 165 0 0 -120z m-340 -250 l0 -120 -165
0 -165 0 0 120 0 120 165 0 165 0 0 -120z m340 0 l0 -120 -165 0 -165 0 0 120
0 120 165 0 165 0 0 -120z m-340 -250 l0 -120 -120 0 c-121 0 -121 0 -165 33
l-44 32 -1 88 0 87 165 0 165 0 0 -120z m340 33 l0 -88 -35 -24 c-20 -13 -33
-26 -30 -29 3 -3 13 2 22 10 35 29 43 30 43 5 l0 -25 -165 -1 -165 -1 0 120 0
120 165 0 165 0 0 -87z m-630 -128 l34 -25 -37 0 c-33 0 -37 3 -37 25 0 14 1
25 3 25 2 0 18 -11 37 -25z m152 -111 c57 -42 107 -80 113 -85 5 -5 -54 -9
-148 -9 l-157 0 0 85 0 85 45 0 c40 0 55 -8 147 -76z m138 -4 c0 -44 -1 -80
-3 -80 -2 0 -53 36 -113 80 l-109 80 113 0 112 0 0 -80z m340 -6 l0 -84 -155
0 c-85 0 -155 2 -155 4 0 2 45 36 100 76 55 41 98 75 96 77 -2 3 -46 -26 -98
-64 -51 -38 -99 -72 -105 -77 -10 -5 -13 12 -13 73 l0 81 165 -1 165 -1 0 -84z"/>
<path d="M9487 1523 c-3 -5 -5 -69 -5 -143 0 -74 2 -124 4 -110 4 27 10 260 7
260 -1 0 -4 -3 -6 -7z"/>
<path d="M9484 1232 c8 -13 -35 -23 -114 -25 -50 -2 -54 -4 -62 -32 -16 -58
-19 -189 -6 -249 l13 -59 55 -3 c30 -2 70 -5 88 -9 17 -3 32 -2 32 2 0 4 -23
9 -52 11 -28 2 -59 7 -68 12 -41 22 -41 288 0 310 9 5 40 10 68 12 50 3 74 20
50 34 -7 4 -8 3 -4 -4z m-145 -79 c-5 -21 -9 -74 -9 -118 0 -44 4 -97 9 -118
11 -45 -4 -60 -21 -20 -15 36 -15 239 0 276 17 40 32 25 21 -20z"/>
<path d="M10485 1218 c3 -8 27 -14 57 -16 28 -2 59 -7 68 -12 41 -22 41 -288
0 -310 -9 -5 -40 -10 -68 -12 -53 -3 -74 -21 -51 -42 9 -8 10 -8 5 1 -11 19
27 33 100 36 66 2 68 3 76 32 16 58 19 189 6 249 l-13 59 -69 4 c-37 2 -76 8
-86 13 -25 13 -30 13 -25 -2z m186 -93 c17 -91 -4 -267 -30 -251 -5 3 -5 25 0
48 11 56 11 183 0 230 -9 37 -4 55 11 40 4 -4 13 -35 19 -67z"/>
<path d="M9482 1063 c2 -131 6 -116 10 40 2 48 0 87 -4 87 -5 0 -7 -57 -6
-127z"/>
<path d="M9620 1165 c0 -3 10 -16 21 -28 l21 -22 -11 22 c-11 22 -31 40 -31
28z"/>
<path d="M9996 1161 c-3 -4 6 -6 19 -3 14 2 25 6 25 8 0 8 -39 4 -44 -5z"/>
<path d="M9622 1110 c0 -19 2 -27 5 -17 2 9 2 25 0 35 -3 9 -5 1 -5 -18z"/>
<path d="M9714 1110 c1 -18 7 -25 20 -25 11 0 20 6 22 13 1 7 0 8 -3 2 -9 -18
-32 -10 -36 13 -3 19 -4 19 -3 -3z"/>
<path d="M9795 1130 c-3 -6 1 -7 9 -4 18 7 21 14 7 14 -6 0 -13 -4 -16 -10z"/>
<path d="M9835 1131 c-3 -5 0 -13 6 -17 7 -4 9 -3 5 4 -3 6 2 13 11 15 16 4
16 5 1 6 -9 0 -19 -3 -23 -8z"/>
<path d="M9897 1134 c-14 -14 -6 -24 19 -24 16 0 24 5 22 13 -5 14 -31 21 -41
11z m30 -10 c-3 -3 -12 -4 -19 -1 -8 3 -5 6 6 6 11 1 17 -2 13 -5z"/>
<path d="M10008 1125 c12 -10 22 -21 22 -26 0 -4 -10 -10 -22 -12 -20 -5 -20
-5 2 -4 14 1 25 8 25 16 0 7 -11 20 -25 29 -25 14 -25 14 -2 -3z"/>
<path d="M10058 1133 c7 -3 16 -2 19 1 4 3 -2 6 -13 5 -11 0 -14 -3 -6 -6z"/>
<path d="M10114 1132 c19 -8 19 -9 -3 -15 -27 -7 -23 -32 5 -32 27 0 27 49 -1
52 -19 3 -19 3 -1 -5z m16 -32 c0 -5 -7 -10 -15 -10 -8 0 -15 5 -15 10 0 6 7
10 15 10 8 0 15 -4 15 -10z"/>
<path d="M10168 1133 c7 -3 16 -2 19 1 4 3 -2 6 -13 5 -11 0 -14 -3 -6 -6z"/>
<path d="M10263 1134 c9 -3 17 -14 17 -24 0 -10 -8 -21 -17 -24 -14 -4 -14 -4
2 -3 14 2 20 10 20 27 0 17 -6 25 -20 27 -16 1 -16 1 -2 -3z"/>
<path d="M10314 1126 c-3 -8 -4 -23 -1 -33 3 -11 5 -7 6 11 1 23 5 27 21 23
11 -3 20 -1 20 4 0 15 -40 10 -46 -5z"/>
<path d="M9666 1095 c4 -8 11 -15 16 -15 6 0 5 6 -2 15 -7 8 -14 15 -16 15 -2
0 -1 -7 2 -15z"/>
<path d="M9898 1088 c5 -5 16 -8 23 -6 8 3 3 7 -10 11 -17 4 -21 3 -13 -5z"/>
<path d="M9838 1083 c6 -2 18 -2 25 0 6 3 1 5 -13 5 -14 0 -19 -2 -12 -5z"/>
<path d="M1350 515 l0 -505 505 0 505 0 0 505 0 505 -505 0 -505 0 0 -505z
m995 0 l0 -490 -490 0 -490 0 -3 480 c-1 264 0 486 3 493 3 10 107 12 492 10
l488 -3 0 -490z"/>
<path d="M1603 765 c130 -132 237 -245 237 -250 0 -5 -107 -118 -237 -250
l-238 -240 245 242 245 243 245 -243 245 -242 -238 240 c-130 132 -237 245
-237 250 0 5 107 118 238 250 l237 240 -240 -237 c-132 -131 -245 -238 -250
-238 -5 0 -118 107 -250 238 l-240 237 238 -240z"/>
<path d="M9953 988 c-25 -8 -33 -17 -33 -35 0 -13 -7 -40 -15 -60 -21 -49 -19
-53 14 -53 17 0 33 -5 37 -11 3 -6 20 -9 38 -5 57 10 96 18 96 21 0 1 -7 22
-15 45 -8 23 -15 53 -15 65 0 16 -8 25 -24 29 -13 3 -30 8 -38 10 -7 2 -28 -1
-45 -6z m50 -21 c3 -8 1 -20 -4 -28 -8 -12 -10 -12 -18 0 -10 15 -4 41 9 41 4
0 10 -6 13 -13z m30 -64 c3 -5 1 -18 -4 -31 -7 -19 -15 -23 -41 -20 -25 2 -33
9 -39 31 -7 26 -6 27 36 27 24 0 46 -3 48 -7z"/>
<path d="M10480 930 c0 -5 5 -10 11 -10 5 0 7 5 4 10 -3 6 -8 10 -11 10 -2 0
-4 -4 -4 -10z"/>
<path d="M9480 900 c0 -5 5 -10 11 -10 5 0 7 5 4 10 -3 6 -8 10 -11 10 -2 0
-4 -4 -4 -10z"/>
<path d="M9904 808 c-30 -14 -47 -54 -34 -79 10 -17 22 -19 120 -19 92 0 111
3 118 17 14 24 -5 68 -35 82 -23 11 -29 9 -54 -15 l-29 -28 -28 27 c-31 30
-29 30 -58 15z"/>
<path d="M9482 705 c0 -44 3 -91 7 -105 5 -14 6 18 4 70 -6 121 -11 139 -11
35z"/>
<path d="M9485 561 c-3 -5 -1 -12 5 -16 5 -3 10 1 10 9 0 18 -6 21 -15 7z"/>
<path d="M9797 532 c7 -4 15 -44 19 -90 8 -99 4 -97 174 -97 132 0 172 8 169
33 -5 33 14 147 25 154 7 5 3 8 -9 8 -18 0 -20 -7 -21 -61 -1 -33 -6 -65 -12
-71 -19 -19 -149 -31 -223 -20 -40 6 -76 15 -80 19 -5 5 -12 37 -15 71 -5 48
-11 62 -23 62 -11 0 -12 -3 -4 -8z m193 -157 c30 0 79 4 108 8 43 6 53 5 50
-5 -7 -19 -50 -26 -158 -26 -108 0 -151 7 -158 26 -3 10 7 11 50 5 29 -4 78
-8 108 -8z"/>
</g>
</svg>
